PathFileType	4	(X/Y/Z)	C:\Users\Basilio\Documents\Thesis Gigler\squatting_fais\c3dfiles\019\SLS_back_pre3\markers_experimental.trc
DataRate	CameraRate	NumFrames	NumMarkers	Units	OrigDataRate	OrigDataStartFrame	OrigNumFrames
200.000000	200.000000	4	59	mm	200.000000	388	1552
Frame#	Time	LBHD			RBHD			C7			T10			CLAV			LSHO			LUUPA			LMUPA			LDUPA			LLEP			LMEP			LRAD			LUL			LRFIN			RSHO			RUPA1			RMUPA			RDUPA			RLEP			RMEP			RRAD			RUL			RUFIN			LASI			RASI			USACR			LSACR			RSACR			LTHI1			LTHI2			LTHI3			LTHI4			LLFC			LTIB1			LTIB2			LTIB3			LTIB4			LLMAL			LMMAL			LHEE			LMT2			LMT5			RTHI			RTHI2			RTHI4			RLFC			RTIB1			RTIB2			RTIB3			RTIB4			RLMAL			RMMAL			RHEE			RMT1			RMT2			RMT5			FHD			LMT1			RTHI3			
		X1	Y1	Z1	X2	Y2	Z2	X3	Y3	Z3	X4	Y4	Z4	X5	Y5	Z5	X6	Y6	Z6	X7	Y7	Z7	X8	Y8	Z8	X9	Y9	Z9	X10	Y10	Z10	X11	Y11	Z11	X12	Y12	Z12	X13	Y13	Z13	X14	Y14	Z14	X15	Y15	Z15	X16	Y16	Z16	X17	Y17	Z17	X18	Y18	Z18	X19	Y19	Z19	X20	Y20	Z20	X21	Y21	Z21	X22	Y22	Z22	X23	Y23	Z23	X24	Y24	Z24	X25	Y25	Z25	X26	Y26	Z26	X27	Y27	Z27	X28	Y28	Z28	X29	Y29	Z29	X30	Y30	Z30	X31	Y31	Z31	X32	Y32	Z32	X33	Y33	Z33	X34	Y34	Z34	X35	Y35	Z35	X36	Y36	Z36	X37	Y37	Z37	X38	Y38	Z38	X39	Y39	Z39	X40	Y40	Z40	X41	Y41	Z41	X42	Y42	Z42	X43	Y43	Z43	X44	Y44	Z44	X45	Y45	Z45	X46	Y46	Z46	X47	Y47	Z47	X48	Y48	Z48	X49	Y49	Z49	X50	Y50	Z50	X51	Y51	Z51	X52	Y52	Z52	X53	Y53	Z53	X54	Y54	Z54	X55	Y55	Z55	X56	Y56	Z56	X57	Y57	Z57	X58	Y58	Z58	X59	Y59	Z59	

389	1.94	-364.7981567382813	1684.022216796875	-752.6871337890626	-369.4973754882813	1672.269409179688	-613.3551025390626	-394.8361206054689	1500.485107421875	-677.8447265625001	-423.8040161132814	1211.357543945313	-701.0609130859376	-256.6003723144532	1458.19482421875	-687.5506591796876	-313.4930725097657	1508.3935546875	-824.2696533203127	-185.2282867431641	1468.466796875	-884.104919433594	-159.2108917236328	1466.095825195313	-843.0789794921877	-119.5419616699219	1460.157836914063	-888.4133300781252	-50.92323303222658	1418.859619140625	-917.2708740234377	-55.60072326660158	1364.139282226563	-893.9239501953127	189.3395385742188	1450.251220703125	-835.486755371094	197.0082244873047	1401.890747070313	-880.7554321289065	261.1929016113282	1469.88134765625	-842.021667480469	-299.7831420898438	1489.583618164063	-551.6911010742189	-181.2329406738282	1395.737060546875	-467.2976989746095	-152.486328125	1429.523559570313	-493.1026611328126	-113.0427322387696	1389.467529296875	-471.653289794922	-35.78924179077149	1384.512939453125	-486.0270080566407	-49.4635696411133	1331.680297851563	-515.9170532226564	199.1674499511719	1440.018920898438	-553.2405395507814	213.5143280029297	1381.644653320313	-526.5960083007814	279.6062927246094	1453.546630859375	-544.6873779296876	-275.5122070312501	1012.2353515625	-837.107849121094	-264.8384704589844	996.6421508789065	-630.3500366210939	-426.6446533203126	1081.443359375	-719.8775024414064	-434.7961425781251	1050.683349609375	-749.5913696289064	-430.7471008300782	1048.269775390625	-692.0681762695314	-280.0828247070313	764.9212036132814	-933.938659667969	-219.7449798583985	705.4914550781251	-943.2476196289065	-176.629150390625	720.6300048828126	-926.8826293945315	-226.363265991211	643.9848632812501	-937.7794189453127	-215.0871887207032	563.0338745117189	-922.079528808594	-288.1034240722657	449.8020324707032	-883.6837158203127	-357.8370971679688	482.3166503906251	-927.1418457031252	-341.3142089843751	447.7627868652345	-905.6553955078127	-411.1382751464845	419.7266540527345	-861.2557373046877	-559.8762207031251	431.2894287109376	-866.4860839843752	-530.1996459960939	417.3403320312501	-785.1726074218752	-610.7719726562501	472.5183410644532	-806.7944335937502	-557.9677124023439	264.1333618164063	-834.0803222656252	-603.3102416992189	294.7485961914063	-877.7514648437502	-303.9619140625001	792.2302856445315	-566.5653076171876	-258.3763427734376	746.6911621093751	-575.4879150390626	-278.7006225585938	664.7533569335939	-581.0930175781251	-305.2117919921876	505.4932556152345	-625.8218383789064	-278.9734497070313	328.2260131835938	-700.8777465820314	-341.4544982910157	249.1560363769532	-653.4412231445314	-307.9005126953126	246.7602691650391	-685.6963500976564	-320.8692016601563	211.971908569336	-731.4627075195314	-390.1472473144532	127.6081314086914	-695.6209716796876	-372.4397277832032	142.5598449707032	-769.632507324219	-457.3700256347657	107.5840454101563	-751.5871582031251	-257.0826110839844	62.38220214843751	-780.835632324219	-252.0518798828126	60.43337249755861	-734.9452514648439	-292.6053771972657	44.75952529907227	-682.2365722656251	-237.3478240966797	1709.3447265625	-607.7611694335939	-551.2108764648439	268.1876220703126	-794.993835449219	-234.3458099365235	752.9976806640626	-598.1906127929689	
390	1.945	-364.6803894042969	1683.955200195313	-752.5435791015626	-369.1750183105469	1672.220458984375	-613.1668090820314	-394.6223144531251	1500.400146484375	-677.7398071289064	-423.8186950683595	1211.359130859375	-701.0952758789064	-256.2712707519532	1458.14501953125	-687.4085083007814	-313.1479187011719	1508.2685546875	-824.2448730468752	-184.8491363525391	1468.24365234375	-883.9863891601565	-158.9255065917969	1465.845581054688	-842.973083496094	-119.1798858642578	1459.9091796875	-888.305603027344	-50.64688873291017	1418.650268554688	-917.1355590820315	-55.42335510253908	1363.865600585938	-893.7980957031252	189.970932006836	1449.701538085938	-835.2233886718752	197.209945678711	1401.484375	-880.556091308594	262.2918701171876	1469.210815429688	-841.573181152344	-299.4572143554688	1489.37939453125	-551.5435791015626	-180.9344329833985	1395.611328125	-467.1231079101564	-152.2000732421875	1429.398193359375	-493.0272216796876	-112.7228164672852	1389.333374023438	-471.5270996093751	-35.47531127929688	1384.394653320313	-485.9891967773439	-49.22043228149415	1331.595092773438	-515.8122558593751	199.3878173828126	1439.738037109375	-553.2160034179689	213.8316192626954	1381.44140625	-526.5305786132814	279.8329467773438	1453.474487304688	-544.6445922851564	-275.7191162109376	1012.066833496094	-837.2432250976565	-264.9826354980469	996.498229980469	-630.5353393554689	-426.7886352539064	1081.42236328125	-719.9232788085939	-434.9891967773439	1050.935180664063	-749.5651245117189	-430.8636169433595	1048.23828125	-692.0531005859376	-280.7584533691407	764.7351074218751	-934.0606689453127	-220.3112335205079	705.0875244140626	-943.3565673828127	-177.199203491211	720.3706054687501	-926.9880981445315	-227.1508941650391	643.7927856445314	-937.8752441406252	-215.723373413086	562.6550903320314	-922.261169433594	-288.8404846191407	449.3294067382814	-883.9009399414065	-358.5592956542969	482.0849609375001	-927.3303222656252	-342.4400329589844	447.7965698242189	-905.8190917968752	-412.1874389648439	419.6556396484376	-861.3750000000002	-560.9425048828126	431.464813232422	-866.606140136719	-531.1827392578126	417.4821777343751	-785.202819824219	-611.6807250976564	472.7286376953126	-806.8538818359377	-559.0325317382814	264.0952758789063	-834.3386230468752	-604.5745849609376	295.0447692871094	-877.8691406250002	-304.0719909667969	792.1548461914065	-566.6120605468751	-258.3547973632813	746.6312866210939	-575.5825805664064	-278.5627746582032	664.7182006835939	-581.1466064453126	-305.0675659179688	505.400115966797	-625.8323974609376	-278.8526916503907	328.1701965332032	-700.9503173828126	-341.3819885253907	249.0948944091797	-653.4429321289064	-307.8528137207032	246.7645111083985	-685.7030029296876	-320.8053894042969	211.9528961181641	-731.4330444335939	-390.1271972656251	127.6068954467774	-695.6197509765626	-372.3897399902344	142.5653228759766	-769.5335693359377	-457.3003845214845	107.5497131347657	-751.6155395507814	-257.0429077148438	62.432918548584	-780.852233886719	-252.0364990234376	60.48691558837892	-734.9230957031251	-292.5352172851563	44.78215408325196	-682.3060302734376	-236.9961547851563	1709.341064453125	-607.8702392578126	-552.3457031250001	268.3479919433594	-795.1023559570315	-234.3905334472657	753.0057983398439	-598.3555908203126	
391	1.95	-364.3132934570313	1683.844604492188	-752.4645385742189	-368.8761901855469	1672.353881835938	-612.9707641601564	-394.2505493164064	1500.365844726563	-677.6499023437501	-423.7848510742189	1211.364379882813	-701.1408691406251	-255.8743133544922	1457.885131835938	-687.2952270507814	-312.9486083984376	1508.231689453125	-824.1937255859377	-184.6049346923828	1468.0859375	-883.8277587890627	-158.9322052001953	1465.497314453125	-842.8955078125002	-118.9228134155274	1459.698486328125	-888.1651000976565	-50.40246582031251	1418.34912109375	-917.0329589843752	-55.18635940551759	1363.605834960938	-893.6845703125002	190.8292388916016	1448.953125	-834.936218261719	197.5422821044922	1401.066284179688	-880.2530517578127	262.6235351562501	1468.62451171875	-841.1184082031252	-299.1573181152344	1489.23681640625	-551.4802246093751	-180.6958160400391	1395.511352539063	-467.1420898437501	-151.8352203369141	1429.247314453125	-492.9258728027345	-112.5912475585938	1389.117919921875	-471.4140930175782	-35.02047729492188	1384.387329101563	-485.9061889648439	-48.94274139404298	1331.384521484375	-515.6694946289064	199.7560424804688	1439.8203125	-553.0587158203126	213.8128356933594	1381.697509765625	-522.3353881835939	280.0433654785157	1453.390991210938	-544.5857543945314	-275.9901428222657	1011.906555175781	-837.4432373046877	-265.2088623046876	996.2623291015627	-630.6809082031251	-426.914276123047	1081.42431640625	-720.0269165039064	-435.1694946289064	1050.7265625	-749.7031860351564	-431.093719482422	1048.2529296875	-692.0393676757814	-281.2559509277344	764.4924316406251	-934.1536254882815	-220.6850891113282	704.6726684570314	-943.4354248046877	-177.8264770507813	719.9846191406251	-927.0855102539065	-227.8437805175782	643.4988403320314	-938.0118408203127	-216.400863647461	562.1995239257814	-922.6575317382815	-289.7944335937501	448.9574279785157	-884.0991210937502	-359.4425659179688	481.9715270996095	-927.4259033203127	-343.6794738769532	447.9463500976564	-905.9899902343752	-413.0350341796876	419.5671691894532	-861.4841918945315	-561.7336425781251	431.4518432617189	-866.666687011719	-532.0514526367189	417.5564880371095	-785.2698364257815	-612.5877075195314	472.9908447265626	-806.9722290039065	-560.1278686523439	263.9190063476563	-834.320007324219	-605.5162353515626	295.1555786132813	-877.8800048828127	-304.0791015625001	792.1124267578127	-566.6704711914064	-258.3800354003907	746.6070556640626	-575.6293334960939	-278.5381164550782	664.6505737304689	-581.1359863281251	-304.8426818847657	505.4254760742189	-625.8121948242189	-278.7200927734376	328.1275024414063	-700.9351196289064	-341.3542175292969	249.0987854003907	-653.4395141601564	-307.7844543457032	246.7044830322266	-685.7141723632814	-320.7020874023438	211.9016265869141	-731.4740600585939	-390.167694091797	127.6455459594727	-695.5633544921876	-372.2731018066407	142.579330444336	-769.383239746094	-457.3647460937501	107.5182342529297	-751.6098022460939	-257.0540466308594	62.48011398315431	-780.893737792969	-252.038070678711	60.43498992919923	-734.9413452148439	-292.4938049316407	44.74113082885743	-682.2970581054689	-236.6282348632813	1709.086181640625	-607.4449462890626	-553.7766723632814	268.3270874023438	-795.0074462890627	-234.3716125488282	753.0286254882814	-598.3783569335939	
392	1.955	-363.9244384765626	1683.739013671875	-752.2880859375001	-368.5622863769532	1672.35595703125	-612.7765502929689	-393.9692687988282	1500.252563476563	-677.5649414062501	-423.7680053710939	1211.350708007813	-701.1566772460939	-255.6412353515626	1457.701904296875	-687.2201538085939	-312.8213806152344	1508.255615234375	-824.335144042969	-184.3319854736328	1467.921264648438	-883.7429199218752	-158.6216888427735	1465.087524414063	-842.6464843750002	-118.8101654052735	1459.567749023438	-888.1025390625002	-50.0983009338379	1418.07568359375	-916.9407958984377	-54.96506881713869	1363.386596679688	-893.6011352539065	191.2606048583985	1448.43701171875	-834.765808105469	197.7381439208985	1400.669311523438	-880.0551757812502	262.7975463867188	1468.594970703125	-841.0555419921877	-298.9005737304688	1489.143920898438	-551.4846801757814	-180.4424133300782	1395.324951171875	-467.0700988769532	-151.6777038574219	1429.032592773438	-492.9020996093751	-112.3059234619141	1388.95654296875	-471.3594665527345	-34.77796936035157	1384.16650390625	-485.8404541015626	-48.71728897094728	1331.295776367188	-515.5953979492189	200.0984649658204	1439.663940429688	-553.0012207031251	213.9571533203126	1381.542236328125	-523.8397216796876	281.7344055175782	1456.134399414063	-541.5102539062501	-276.3077697753907	1011.667541503906	-837.5870361328127	-265.2613830566407	996.1424560546877	-630.8332519531251	-427.0602111816407	1081.388305664063	-720.0572509765626	-435.2260742187501	1050.87646484375	-749.7008666992189	-431.1434631347657	1048.303955078125	-692.1069335937501	-281.7072143554688	764.1391601562501	-934.2343750000002	-221.3138732910157	704.4233398437501	-943.5291137695315	-178.451171875	719.6121215820314	-927.2412719726565	-228.5159759521485	643.2738037109376	-938.163757324219	-217.527084350586	562.0075073242189	-922.927429199219	-290.8243408203126	448.9260559082032	-884.1804199218752	-360.5236816406251	481.8693847656251	-927.5996093750002	-344.6889648437501	447.9011230468751	-906.074157714844	-414.0705871582032	419.4707031250001	-861.6665039062502	-562.6958618164064	431.5347290039064	-866.719421386719	-533.0173339843751	417.6656188964845	-785.3776855468752	-613.6215820312501	473.2263183593751	-806.9888305664065	-560.9282226562501	263.9212951660157	-834.5179443359377	-606.4871826171876	295.3393249511719	-877.8604736328127	-304.1956176757813	792.0549926757815	-566.6625976562501	-258.4433898925782	746.5870971679689	-575.6120605468751	-278.3703308105469	664.5864257812501	-581.1091918945314	-304.5705566406251	505.3007202148439	-625.7697143554689	-278.5278930664063	328.0776977539063	-700.8204345703126	-341.2377014160157	249.1396942138672	-653.4351806640626	-307.7962036132813	246.7055816650391	-685.6723632812501	-320.6611633300782	211.920150756836	-731.4083251953126	-390.1507568359376	127.6544723510742	-695.4453125000001	-372.2714843750001	142.6339569091797	-769.3096313476565	-457.2925415039064	107.5585861206055	-751.6287841796876	-257.0116271972657	62.52829360961915	-780.834167480469	-252.0547485351563	60.39977645874025	-734.8937988281251	-292.5381469726563	44.78398513793946	-682.3239746093751	-236.2039947509766	1709.017700195313	-607.5955200195314	-554.7228393554689	268.5369567871094	-795.1593017578127	-234.4180908203126	753.0563354492189	-598.4130859375001	
